<?xml version="1.0" encoding="UTF-8" standalone="no"?>
<!-- Created with Inkscape (http://www.inkscape.org/) -->

<svg
   width="258.47784"
   height="129.23892"
   viewBox="0 0 68.388931 34.194465"
   version="1.1"
   id="svg1"
   xml:space="preserve"
   inkscape:export-filename="mapitanuevo.png"
   inkscape:export-xdpi="96"
   inkscape:export-ydpi="96"
   inkscape:version="1.4.2 (f4327f4, 2025-05-13)"
   sodipodi:docname="mapitanuevo.svg"
   xmlns:inkscape="http://www.inkscape.org/namespaces/inkscape"
   xmlns:sodipodi="http://sodipodi.sourceforge.net/DTD/sodipodi-0.dtd"
   xmlns="http://www.w3.org/2000/svg"
   xmlns:svg="http://www.w3.org/2000/svg"><sodipodi:namedview
     id="namedview1"
     pagecolor="#ffffff"
     bordercolor="#000000"
     borderopacity="0.25"
     inkscape:showpageshadow="2"
     inkscape:pageopacity="0.0"
     inkscape:pagecheckerboard="0"
     inkscape:deskcolor="#d1d1d1"
     inkscape:document-units="mm"
     showgrid="true"
     inkscape:zoom="1.1606411"
     inkscape:cx="97.359985"
     inkscape:cy="184.81165"
     inkscape:window-width="1366"
     inkscape:window-height="705"
     inkscape:window-x="-8"
     inkscape:window-y="-8"
     inkscape:window-maximized="1"
     inkscape:current-layer="layer1"><inkscape:grid
       id="grid2"
       units="px"
       originx="0.46683308"
       originy="0.24066208"
       spacingx="4.2333334"
       spacingy="4.2333334"
       empcolor="#0be500"
       empopacity="0.88627451"
       color="#15e500"
       opacity="0.89411765"
       empspacing="5"
       enabled="true"
       visible="true" /><inkscape:grid
       id="grid3"
       units="px"
       originx="0.46683308"
       originy="0.24066208"
       spacingx="16.933333"
       spacingy="16.933333"
       empcolor="#e50000"
       empopacity="0.59607843"
       color="#e50000"
       opacity="0.79607843"
       empspacing="5"
       enabled="true"
       visible="true" /><inkscape:page
       x="0"
       y="0"
       width="68.388931"
       height="34.194466"
       id="page2"
       margin="0"
       bleed="0" /></sodipodi:namedview><defs
     id="defs1" /><g
     inkscape:label="Capa 1"
     inkscape:groupmode="layer"
     id="layer1"
     transform="translate(0.46683306,0.24066208)"><rect
       style="fill:#b1552d;fill-opacity:1;stroke:#000000;stroke-width:0.357595"
       id="rect3"
       width="67.364189"
       height="33.507996"
       x="0.18264759"
       y="0.18095942" /><rect
       style="fill:#b3b3b3;stroke:#000000;stroke-width:0.316826"
       id="rect5-01-0-34"
       width="3.9817703"
       height="3.95312"
       x="-42.206951"
       y="-16.723587"
       ry="0"
       transform="matrix(-0.99999997,-2.5328889e-4,0.00226613,-0.99999743,0,0)" /><rect
       style="fill:#999999;stroke:#000000;stroke-width:0.313449"
       id="rect5-01-0-36"
       width="3.8976173"
       height="3.952841"
       x="-37.930233"
       y="-25.156321"
       ry="0"
       transform="matrix(-0.99999997,-2.5873941e-4,0.00221839,-0.99999754,0,0)" /><rect
       style="fill:#666666;stroke:#000000;stroke-width:0.309285"
       id="rect5-01-0-2"
       width="3.8498352"
       height="3.8962839"
       x="-29.610033"
       y="-33.599968"
       ry="0"
       transform="matrix(-0.99999997,-2.5820274e-4,0.002223,-0.99999753,0,0)" /><rect
       style="fill:#999999;stroke:#000000;stroke-width:0.308996"
       id="rect5-01-0-6"
       width="3.8619509"
       height="3.8768175"
       x="-42.066525"
       y="-4.013052"
       ry="0"
       transform="matrix(-0.99999997,-2.5610673e-4,0.00224119,-0.99999749,0,0)" /><rect
       style="fill:#b3b3b3;stroke:#000000;stroke-width:0.441371"
       id="rect5-01-0-3-8-5"
       width="3.8066387"
       height="8.0249481"
       x="-4.0475178"
       y="29.795851"
       ry="0"
       transform="matrix(-0.00125776,-0.99999921,0.99999979,-6.430396e-4,0,0)" /><rect
       style="fill:#999999;stroke:#000000;stroke-width:0.440603"
       id="rect5-66-5-5"
       width="3.8044395"
       height="8.0016594"
       x="-42.221027"
       y="-33.570549"
       ry="0"
       transform="matrix(-1,6.9305521e-5,0.00203424,-0.99999793,0,0)" /><rect
       style="fill:#808080;stroke:#000000;stroke-width:0.443055"
       id="rect5-29-9-1"
       width="3.821404"
       height="8.0550776"
       x="17.087254"
       y="-42.07016"
       ry="0"
       transform="matrix(0.00139464,0.99999903,-0.99999995,-3.1592104e-4,0,0)" /><rect
       style="fill:#999999;stroke:#000000;stroke-width:0.450524"
       id="rect5-4-7"
       width="3.9526122"
       height="8.0524406"
       x="33.871555"
       y="4.6226788"
       ry="0"
       transform="matrix(0.99998862,-0.0047712,0.0028778,0.99999586,0,0)" /><rect
       style="fill:#999999;stroke:#000000;stroke-width:0.438344"
       id="rect5-84-2"
       width="8.0177364"
       height="3.7579739"
       x="29.540575"
       y="29.819677"
       ry="0"
       transform="matrix(0.9999994,-0.00109762,0.01250858,0.99992176,0,0)" /><rect
       style="fill:#999999;stroke:#000000;stroke-width:0.441072"
       id="rect5-06-2"
       width="3.8221262"
       height="7.9816365"
       x="29.719191"
       y="17.319523"
       ry="0"
       transform="matrix(0.99998804,-0.0048907,0.00280749,0.99999606,0,0)" /><rect
       style="fill:#999999;stroke:#000000;stroke-width:0.443055"
       id="rect5-29-9"
       width="3.821404"
       height="8.0550776"
       x="25.535967"
       y="-37.825794"
       ry="0"
       transform="matrix(0.00139464,0.99999903,-0.99999995,-3.1592104e-4,0,0)" /><rect
       style="fill:#999999;stroke:#000000;stroke-width:0.447963"
       id="rect5-9-4"
       width="3.9160705"
       height="8.0354195"
       x="13.030842"
       y="-37.63269"
       ry="0"
       transform="matrix(0.00933478,0.99995643,-0.99997524,0.00703689,0,0)" /><rect
       style="fill:#808080;stroke:#000000;stroke-width:0.314731"
       id="rect5-0-19"
       width="3.9373851"
       height="3.9450238"
       x="29.65333"
       y="4.4502335"
       ry="0"
       transform="matrix(0.99999725,-0.0023465,0.0058515,0.99998288,0,0)" /><rect
       style="fill:#808080;stroke:#000000;stroke-width:0.317189"
       id="rect5-86-6"
       width="4.0056911"
       height="3.9385221"
       x="25.362371"
       y="25.541498"
       ry="0"
       transform="matrix(0.99999735,-0.00230269,0.00596285,0.99998222,0,0)" /><rect
       style="fill:#808080;stroke:#000000;stroke-width:0.440109"
       id="rect5-8-9"
       width="3.8049667"
       height="7.9826016"
       x="25.704172"
       y="16.957361"
       ry="0"
       transform="matrix(0.99998356,0.00573467,-0.00660497,0.99997819,0,0)" /><rect
       style="fill:#999999;stroke:#000000;stroke-width:0.437951"
       id="rect5-77-8"
       width="3.7397804"
       height="8.0423498"
       x="8.7482891"
       y="-33.57526"
       ry="0"
       transform="matrix(0.00147,0.99999892,-0.99999776,0.00211691,0,0)" /><rect
       style="fill:#999999;stroke:#000000;stroke-width:0.315524"
       id="rect5-13-2"
       width="3.9764829"
       height="3.925951"
       x="25.433876"
       y="4.455667"
       ry="0"
       transform="matrix(0.99999733,-0.00231218,0.00593831,0.99998237,0,0)" /><rect
       style="fill:#999999;stroke:#000000;stroke-width:0.312568"
       id="rect5-2-5"
       width="3.8904064"
       height="3.9379807"
       x="21.189608"
       y="17.114939"
       ry="0"
       transform="matrix(0.99999719,-0.00237061,0.00579203,0.99998323,0,0)" /><rect
       style="fill:#b3b3b3;stroke:#000000;stroke-width:0.445278"
       id="rect5-7-5"
       width="3.8778944"
       height="8.0175591"
       x="21.186914"
       y="21.465"
       ry="0"
       transform="matrix(0.99998828,-0.00484206,0.0028357,0.99999598,0,0)" /><rect
       style="fill:#808080;stroke:#000000;stroke-width:0.437442"
       id="rect5-91"
       width="3.7265422"
       height="8.0521479"
       x="21.359173"
       y="4.5136471"
       ry="0"
       transform="matrix(0.9999872,-0.00506046,0.0027133,0.99999632,0,0)" /><rect
       style="fill:#808080;stroke:#000000;stroke-width:0.440715"
       id="rect5-1-2"
       width="3.8154373"
       height="7.9826665"
       x="12.827529"
       y="-29.294308"
       ry="0"
       transform="matrix(0.00115304,0.99999934,-0.99999911,-0.00133293,0,0)" /><rect
       style="fill:#808080;stroke:#000000;stroke-width:0.440067"
       id="rect5-01-0-3-5"
       width="3.7901926"
       height="8.012167"
       x="-4.0570168"
       y="21.335459"
       ry="0"
       transform="matrix(-0.00249981,-0.99999688,0.99999798,-0.00201196,0,0)" /><rect
       style="fill:#b3b3b3;stroke:#000000;stroke-width:0.441371"
       id="rect5-01-0-3-8"
       width="3.8066387"
       height="8.0249481"
       x="-8.2449284"
       y="38.260994"
       ry="0"
       transform="matrix(-0.00125776,-0.99999921,0.99999979,-6.430396e-4,0,0)" /><rect
       style="fill:#808080;stroke:#000000;stroke-width:0.312082"
       id="rect5-01-0-3-9"
       width="3.9014149"
       height="3.9146142"
       x="-46.351238"
       y="-12.483987"
       ry="0"
       transform="matrix(-0.99999997,-2.5598781e-4,0.00224224,-0.99999749,0,0)" /><rect
       style="fill:#808080;fill-opacity:1;stroke:#000000;stroke-width:0.439248"
       id="rect5-01-0-3-6"
       width="3.7886577"
       height="7.9856129"
       x="-46.325401"
       y="-20.823351"
       ry="0"
       transform="matrix(-0.99999986,-5.3774473e-4,0.00106739,-0.99999943,0,0)" /><rect
       style="fill:#808080;stroke:#000000;stroke-width:0.440769"
       id="rect5-01-0-3-0"
       width="3.7894859"
       height="8.0393038"
       x="-25.173138"
       y="38.192978"
       ry="0"
       transform="matrix(-0.00157327,-0.99999876,0.99999957,-9.2827325e-4,0,0)" /><rect
       style="fill:#808080;stroke:#000000;stroke-width:0.309739"
       id="rect5-01-0"
       width="3.8612092"
       height="3.89622"
       x="-42.117626"
       y="-12.456268"
       ry="0"
       transform="matrix(-0.99999997,-2.5743792e-4,0.0022296,-0.99999751,0,0)" /><rect
       style="fill:#808080;stroke:#000000;stroke-width:0.434633"
       id="rect5-01-0-3"
       width="3.7932634"
       height="7.8092337"
       x="-46.308609"
       y="-33.324356"
       ry="0"
       transform="matrix(-0.99999986,-5.25229e-4,0.00109284,-0.9999994,0,0)" /><rect
       style="fill:#b3b3b3;stroke:#000000;stroke-width:0.443733"
       id="rect5-4-1"
       width="3.8794334"
       height="7.9589043"
       x="-54.844852"
       y="-33.357269"
       ry="0"
       transform="matrix(-1,-3.7337067e-5,0.00197834,-0.99999804,0,0)" /><rect
       style="fill:#808080;stroke:#000000;stroke-width:0.442325"
       id="rect5-01-2"
       width="3.7437267"
       height="8.1951761"
       x="-3.9501057"
       y="42.421391"
       ry="0"
       transform="matrix(-2.387672e-4,-0.99999997,0.99999995,3.1095097e-4,0,0)" /><rect
       style="fill:#999999;stroke:#000000;stroke-width:0.469027"
       id="rect5-97-5"
       width="4.0341182"
       height="8.5511723"
       x="-50.778316"
       y="-12.569412"
       ry="0"
       transform="matrix(-0.99999999,1.4561379e-4,0.00209365,-0.99999781,0,0)" /><rect
       style="fill:#b3b3b3;stroke:#000000;stroke-width:0.335604"
       id="rect5-84-0"
       width="4.1471872"
       height="4.2586894"
       x="-59.264595"
       y="-8.3875084"
       ry="0"
       transform="matrix(-0.99999703,-0.00243717,-8.7331612e-4,-0.99999962,0,0)" /><rect
       style="fill:#999999;stroke:#000000;stroke-width:0.441072"
       id="rect5-06-9"
       width="3.8221262"
       height="7.9816365"
       x="-58.995552"
       y="-20.766125"
       ry="0"
       transform="matrix(-1,4.8637285e-5,0.00202859,-0.99999794,0,0)" /><rect
       style="fill:#808080;stroke:#000000;stroke-width:0.433326"
       id="rect5-96-4"
       width="3.809865"
       height="7.7285204"
       x="-54.808163"
       y="-8.0724897"
       ry="0"
       transform="matrix(-1,-9.1231153e-5,0.00194592,-0.99999811,0,0)" /><rect
       style="fill:#808080;stroke:#000000;stroke-width:0.452082"
       id="rect5-29-7"
       width="4.0335088"
       height="7.9456086"
       x="-12.041569"
       y="51.128887"
       ry="0"
       transform="matrix(0.00353271,-0.99999376,0.99998658,0.00518011,0,0)" /><rect
       style="fill:#808080;stroke:#000000;stroke-width:0.447963"
       id="rect5-9-8"
       width="3.9160707"
       height="8.0354204"
       x="-25.244965"
       y="50.832813"
       ry="0"
       transform="matrix(-0.00449883,-0.99998988,0.99999759,-0.00219486,0,0)" /><rect
       style="fill:#808080;stroke:#000000;stroke-width:0.313381"
       id="rect5-99-3"
       width="3.9030299"
       height="3.9456491"
       x="-50.548626"
       y="-33.404629"
       ry="0"
       transform="matrix(-0.9999969,-0.00248893,-9.7781617e-4,-0.99999952,0,0)" /><rect
       style="fill:#999999;stroke:#000000;stroke-width:0.44125"
       id="rect5-66-5"
       width="3.8156793"
       height="8.0015278"
       x="-50.599373"
       y="-29.172512"
       ry="0"
       transform="matrix(-1,6.9100233e-5,0.00204028,-0.99999792,0,0)" /><rect
       style="fill:#808080;stroke:#000000;stroke-width:0.31427"
       id="rect5-0-1"
       width="3.9257867"
       height="3.9450886"
       x="-58.971569"
       y="-33.409706"
       ry="0"
       transform="matrix(-0.99999687,-0.00250299,-0.00101246,-0.99999949,0,0)" /><rect
       style="fill:#b3b3b3;stroke:#000000;stroke-width:0.452506"
       id="rect5-6-2"
       width="3.9133141"
       height="8.2049999"
       x="-4.4035225"
       y="55.198704"
       ry="0"
       transform="matrix(-0.00697946,-0.99997564,0.99999065,-0.00432441,0,0)" /><rect
       style="fill:#999999;stroke:#000000;stroke-width:0.440343"
       id="rect5-777-0"
       width="3.792428"
       height="8.0175552"
       x="-20.871668"
       y="46.641235"
       ry="0"
       transform="matrix(-0.00398198,-0.99999207,0.99999907,-0.00136266,0,0)" /><rect
       style="fill:#808080;stroke:#000000;stroke-width:0.339337"
       id="rect5-86-1"
       width="4.1434622"
       height="4.357882"
       x="-63.386932"
       y="-12.373561"
       ry="0"
       transform="matrix(-0.99999717,-0.00237892,-7.3834786e-4,-0.99999973,0,0)" /><rect
       style="fill:#808080;stroke:#000000;stroke-width:0.440109"
       id="rect5-8-6"
       width="3.8049667"
       height="7.9826016"
       x="-63.363228"
       y="-20.184294"
       ry="0"
       transform="matrix(-0.99994407,-0.01057658,0.01144084,-0.99993455,0,0)" /><rect
       style="fill:#999999;stroke:#000000;stroke-width:0.437951"
       id="rect5-77-4"
       width="3.7397804"
       height="8.0423498"
       x="-29.091278"
       y="55.189926"
       ry="0"
       transform="matrix(0.00336605,-0.99999433,0.99999629,0.00272516,0,0)" /><rect
       style="fill:#808080;stroke:#000000;stroke-width:0.315062"
       id="rect5-13-0"
       width="3.9647694"
       height="3.9260154"
       x="-63.175327"
       y="-33.401241"
       ry="0"
       transform="matrix(-0.99999678,-0.00253741,-0.00109901,-0.9999994,0,0)" /><rect
       style="fill:#808080;stroke:#000000;stroke-width:0.320199"
       id="rect5-12-6"
       width="4.1625543"
       height="3.8623915"
       x="-67.558357"
       y="-3.9022985"
       ry="0"
       transform="matrix(-0.99999644,-0.002669,-0.00148246,-0.9999989,0,0)" /><rect
       style="fill:#999999;stroke:#000000;stroke-width:0.317777"
       id="rect5-2-1"
       width="3.9655209"
       height="3.9932153"
       x="-67.362976"
       y="-20.962458"
       ry="0"
       transform="matrix(-1,-7.0918777e-5,-0.00337366,-0.99999431,0,0)" /><rect
       style="fill:#808080;stroke:#000000;stroke-width:0.441025"
       id="rect5-7-8"
       width="3.8021832"
       height="8.0218172"
       x="-67.449425"
       y="-16.624754"
       ry="0"
       transform="matrix(-1,9.9039195e-5,0.00205721,-0.99999788,0,0)" /><rect
       style="fill:#999999;stroke:#000000;stroke-width:0.452082"
       id="rect5-27-9"
       width="4.0335064"
       height="7.9456158"
       x="-8.3122025"
       y="59.524624"
       ry="0"
       transform="matrix(-0.00241843,-0.99999708,0.99999978,-6.5984459e-4,0,0)" /><rect
       style="fill:#b3b3b3;stroke:#000000;stroke-width:0.443809"
       id="rect5-61-8"
       width="3.8540764"
       height="8.0139503"
       x="-16.788046"
       y="46.604931"
       ry="0"
       transform="matrix(-0.00674944,-0.99997722,0.99999176,-0.00405954,0,0)" /><rect
       style="fill:#808080;stroke:#000000;stroke-width:0.436801"
       id="rect5-41"
       width="3.7155647"
       height="8.0522804"
       x="-67.360008"
       y="-33.587387"
       ry="0"
       transform="matrix(-0.99999998,2.1904362e-4,0.00211647,-0.99999776,0,0)" /><rect
       style="fill:#b3b3b3;stroke:#000000;stroke-width:0.440715"
       id="rect5-1-4"
       width="3.8154373"
       height="7.9826665"
       x="-24.70578"
       y="59.483105"
       ry="0"
       transform="matrix(0.00368302,-0.99999322,0.99998093,0.00617497,0,0)" /><rect
       style="fill:#999999;stroke:#000000;stroke-width:0.443734"
       id="rect5-4"
       width="3.8794336"
       height="7.9589043"
       x="12.796798"
       y="0.36517107"
       ry="0"
       transform="matrix(0.99998846,-0.00480473,0.00285772,0.99999592,0,0)" /><rect
       style="fill:#808080;stroke:#000000;stroke-width:0.435592"
       id="rect5-01"
       width="3.728646"
       height="7.9797263"
       x="29.742865"
       y="-25.354664"
       ry="0"
       transform="matrix(-0.00286749,0.99999589,-0.99999701,-0.00244374,0,0)" /><rect
       style="fill:#999999;stroke:#000000;stroke-width:0.467955"
       id="rect5-97"
       width="4.0151749"
       height="8.552247"
       x="16.752697"
       y="21.164867"
       ry="0"
       transform="matrix(0.99998756,-0.00498837,0.00275251,0.99999621,0,0)" /><rect
       style="fill:#808080;stroke:#000000;stroke-width:0.335604"
       id="rect5-84"
       width="4.1471872"
       height="4.2586894"
       x="8.281229"
       y="25.172785"
       ry="0"
       transform="matrix(0.99999711,-0.00240491,0.00570935,0.9999837,0,0)" /><rect
       style="fill:#999999;stroke:#000000;stroke-width:0.441072"
       id="rect5-06"
       width="3.8221262"
       height="7.9816365"
       x="8.6478024"
       y="12.962134"
       ry="0"
       transform="matrix(0.99998804,-0.0048907,0.00280749,0.99999606,0,0)" /><rect
       style="fill:#b3b3b3;stroke:#000000;stroke-width:0.433326"
       id="rect5-96"
       width="3.8098652"
       height="7.7285204"
       x="12.83239"
       y="25.646301"
       ry="0"
       transform="matrix(0.99998871,-0.00475084,0.00289013,0.99999582,0,0)" /><rect
       style="fill:#b3b3b3;stroke:#000000;stroke-width:0.452082"
       id="rect5-29"
       width="4.0335093"
       height="7.9456086"
       x="21.33288"
       y="-16.564859"
       ry="0"
       transform="matrix(0.00130334,0.99999915,-0.99999994,-3.3805031e-4,0,0)" /><rect
       style="fill:#999999;fill-opacity:1;stroke:#000000;stroke-width:0.447963"
       id="rect5-9"
       width="3.9160705"
       height="8.0354195"
       x="8.6282606"
       y="-16.589899"
       ry="0"
       transform="matrix(0.00933478,0.99995643,-0.99997524,0.00703689,0,0)" /><rect
       style="fill:#999999;stroke:#000000;stroke-width:0.311984"
       id="rect5-99"
       width="3.9164143"
       height="3.8971834"
       x="17.042847"
       y="0.20127307"
       ry="0"
       transform="matrix(0.99999728,-0.00233046,0.00589179,0.99998264,0,0)" /><rect
       style="fill:#999999;stroke:#000000;stroke-width:0.44125"
       id="rect5-66"
       width="3.8156796"
       height="8.0015278"
       x="17.10113"
       y="4.5002384"
       ry="0"
       transform="matrix(0.99998794,-0.00491116,0.00279578,0.99999609,0,0)" /><rect
       style="fill:#808080;stroke:#000000;stroke-width:0.312868"
       id="rect5-0"
       width="3.939244"
       height="3.8966284"
       x="8.5938492"
       y="0.19550134"
       ry="0"
       transform="matrix(0.99999732,-0.00231662,0.00592697,0.99998244,0,0)" /><rect
       style="fill:#666666;stroke:#000000;stroke-width:0.458171"
       id="rect5-6"
       width="4.0268836"
       height="8.1745043"
       x="29.620173"
       y="-12.305677"
       ry="0"
       transform="matrix(0.01157895,0.99993296,-0.99995654,0.00932285,0,0)" /><rect
       style="fill:#999999;stroke:#000000;stroke-width:0.438818"
       id="rect5-777"
       width="3.7939534"
       height="7.9588909"
       x="12.944809"
       y="-20.768503"
       ry="0"
       transform="matrix(0.00878722,0.99996139,-0.99998068,0.0062153,0,0)" /><rect
       style="fill:#999999;stroke:#000000;stroke-width:0.339337"
       id="rect5-86"
       width="4.1434622"
       height="4.357882"
       x="4.1634183"
       y="21.190651"
       ry="0"
       transform="matrix(0.99999697,-0.00246315,0.00557438,0.99998446,0,0)" /><rect
       style="fill:#808080;stroke:#000000;stroke-width:0.440109"
       id="rect5-8"
       width="3.8049667"
       height="7.9826016"
       x="4.5931535"
       y="12.824019"
       ry="0"
       transform="matrix(0.99998356,0.00573467,-0.00660497,0.99997819,0,0)" /><rect
       style="fill:#808080;stroke:#000000;stroke-width:0.437951"
       id="rect5-77"
       width="3.7397804"
       height="8.0423498"
       x="4.4493508"
       y="-12.498164"
       ry="0"
       transform="matrix(0.00147,0.99999892,-0.99999776,0.00211691,0,0)" /><rect
       style="fill:#999999;fill-opacity:1;stroke:#000000;stroke-width:0.3144"
       id="rect5-13"
       width="3.9776051"
       height="3.8969204"
       x="4.3752546"
       y="0.18210126"
       ry="0"
       transform="matrix(0.99999737,-0.00229443,0.00598424,0.99998209,0,0)" /><rect
       style="fill:#808080;stroke:#000000;stroke-width:0.314072"
       id="rect5-12"
       width="3.9984272"
       height="3.8685248"
       x="-0.028355425"
       y="29.511913"
       ry="0"
       transform="matrix(0.99999743,-0.00226587,0.00605973,0.99998164,0,0)" /><rect
       style="fill:#999999;stroke:#000000;stroke-width:0.314668"
       id="rect5-2"
       width="3.9449613"
       height="3.9358788"
       x="0.074087135"
       y="12.81155"
       ry="0"
       transform="matrix(0.99999727,-0.00233658,0.00587639,0.99998273,0,0)" /><rect
       style="fill:#b3b3b3;stroke:#000000;stroke-width:0.442841"
       id="rect5-7"
       width="3.8105466"
       height="8.0702524"
       x="0.19613799"
       y="17.103933"
       ry="0"
       transform="matrix(0.99999525,-0.0030824,8.5150011e-4,0.99999964,0,0)" /><rect
       style="fill:#808080;stroke:#000000;stroke-width:0.441118"
       id="rect5-27"
       width="3.8838358"
       height="7.8564315"
       x="25.570034"
       y="-7.9714088"
       ry="0"
       transform="matrix(0.00423122,0.99999105,-0.99999813,0.00193229,0,0)" /><rect
       style="fill:#808080;stroke:#000000;stroke-width:0.442785"
       id="rect5-61"
       width="3.8550966"
       height="7.9749041"
       x="17.210779"
       y="-20.702118"
       ry="0"
       transform="matrix(0.01155065,0.99993329,-0.99996019,0.00892246,0,0)" /><rect
       style="fill:#b2b3b3;fill-opacity:1;stroke:#000000;stroke-width:0.438298"
       id="rect5"
       width="3.7648089"
       height="8.001544"
       x="0.25654146"
       y="0.2408102"
       ry="0"
       transform="matrix(0.99999601,-0.0028264,7.9337341e-4,0.99999969,0,0)" /><rect
       style="fill:#808080;fill-opacity:1;stroke:#000000;stroke-width:0.441077"
       id="rect5-1"
       width="3.8150759"
       height="7.9965439"
       x="8.6015091"
       y="-8.2155838"
       ry="0"
       transform="matrix(0.00115515,0.99999933,-0.99999911,-0.00133049,0,0)" /></g><g
     inkscape:groupmode="layer"
     id="layer2"
     inkscape:label="Capa 2"
     style="display:inline"
     transform="translate(0.45592614,0.22796374)"><rect
       style="display:inline;opacity:0.339559;mix-blend-mode:normal;fill:#cccccc;stroke:#000000;stroke-width:0"
       id="rect1"
       width="68.388931"
       height="34.194466"
       x="-0.45592615"
       y="-0.22796373" /></g></svg>
