<?xml version="1.0" encoding="UTF-8" standalone="no"?>
<!-- Created with Inkscape (http://www.inkscape.org/) -->

<svg
   width="256"
   height="256"
   viewBox="0 0 67.733332 67.733333"
   version="1.1"
   id="svg1"
   xml:space="preserve"
   inkscape:version="1.4.4 (dcaf3e7, 2026-05-05)"
   sodipodi:docname="Personaje terminado_pro.svg"
   inkscape:export-filename="Downloads\personitasproulterapromasreal.png"
   inkscape:export-xdpi="96"
   inkscape:export-ydpi="96"
   xmlns:inkscape="http://www.inkscape.org/namespaces/inkscape"
   xmlns:sodipodi="http://sodipodi.sourceforge.net/DTD/sodipodi-0.dtd"
   xmlns="http://www.w3.org/2000/svg"
   xmlns:svg="http://www.w3.org/2000/svg"><sodipodi:namedview
     id="namedview1"
     pagecolor="#ffffff"
     bordercolor="#000000"
     borderopacity="0.25"
     inkscape:showpageshadow="2"
     inkscape:pageopacity="0.0"
     inkscape:pagecheckerboard="0"
     inkscape:deskcolor="#d1d1d1"
     inkscape:document-units="px"
     showgrid="true"
     inkscape:zoom="2.8284272"
     inkscape:cx="88.034792"
     inkscape:cy="107.657"
     inkscape:window-width="1920"
     inkscape:window-height="1001"
     inkscape:window-x="-9"
     inkscape:window-y="-9"
     inkscape:window-maximized="1"
     inkscape:current-layer="layer1"><inkscape:grid
       id="grid3"
       units="px"
       originx="0"
       originy="0"
       spacingx="16.933333"
       spacingy="16.933333"
       empcolor="#e20000"
       empopacity="1"
       color="#e50000"
       opacity="1"
       empspacing="5"
       enabled="true"
       visible="true"
       snapvisiblegridlinesonly="true" /><inkscape:grid
       id="grid8"
       units="px"
       originx="0"
       originy="0"
       spacingx="4.2333333"
       spacingy="4.2333333"
       empcolor="#0099e5"
       empopacity="0.3372549"
       color="#0099e5"
       opacity="0.28627451"
       empspacing="5"
       enabled="true"
       visible="true" /></sodipodi:namedview><defs
     id="defs1" /><g
     inkscape:label="Capa 1"
     inkscape:groupmode="layer"
     id="layer1"><path
       style="fill:#cc9972;fill-opacity:1;stroke:#000000;stroke-width:0.129646;stroke-dasharray:none;stroke-opacity:1"
       d="m 38.036335,8.1844366 -0.246533,-0.282084 0.04174,-0.247565 0.192977,-0.161868 0.248044,-0.06919"
       id="path51"
       sodipodi:nodetypes="ccccc" /><path
       style="fill:#2d58bc;fill-opacity:0.972549;stroke:#000000;stroke-width:0.129646;stroke-dasharray:none;stroke-opacity:1"
       d="M 10.432543,6.8683145 10.222068,6.0264154 10.163603,5.324833 9.8595842,5.2195955 9.6841887,5.1143583 9.3684765,5.2663678 9.22816,5.8977922 9.0293783,6.763077"
       id="path11" /><path
       style="fill:#d19d75;fill-opacity:0.972549;stroke:#000000;stroke-width:0.159799;stroke-dasharray:none;stroke-opacity:1"
       d="m 10.169207,5.3821509 -0.05591,-0.1792168 -0.2116262,-0.13622 -0.4989637,0.00545 -0.02447,0.1056965 0.00579,0.1579171"
       id="path12"
       sodipodi:nodetypes="cccccc" /><path
       style="fill:#8a8a8a;fill-opacity:1;stroke:#000000;stroke-width:0.149735;stroke-dasharray:none;stroke-opacity:1"
       d="M 10.100931,5.1005938 C 10.02995,4.9573412 10.205044,5.4537002 9.9141052,4.6969967 L 9.6955578,4.5343799 9.521556,4.5590816 9.3731658,4.6670413 9.3724872,5.0804272"
       id="path13"
       sodipodi:nodetypes="cccccc" /><path
       style="fill:#2d58bc;fill-opacity:0.972549;stroke:#000000;stroke-width:0.129646;stroke-dasharray:none;stroke-opacity:1"
       d="m 7.8530241,23.905084 -0.210475,-0.8419 -0.058465,-0.701582 -0.3040188,-0.105237 -0.1753955,-0.105238 -0.3157122,0.15201 -0.1403165,0.631424 -0.1987817,0.865285"
       id="path11-7" /><path
       style="fill:#d19d75;fill-opacity:0.972549;stroke:#000000;stroke-width:0.159799;stroke-dasharray:none;stroke-opacity:1"
       d="m 7.5896881,22.41892 -0.05591,-0.179217 -0.2116262,-0.13622 -0.4989637,0.0054 -0.02447,0.105697 0.00579,0.157917"
       id="path12-8"
       sodipodi:nodetypes="cccccc" /><path
       style="fill:#8a8a8a;fill-opacity:1;stroke:#000000;stroke-width:0.149735;stroke-dasharray:none;stroke-opacity:1"
       d="m 7.5214121,22.137363 c -0.070981,-0.143253 0.104113,0.353106 -0.1868258,-0.403597 l -0.2185474,-0.162617 -0.1740018,0.0247 -0.1483902,0.107959 -6.786e-4,0.413386"
       id="path13-8"
       sodipodi:nodetypes="cccccc" /><path
       style="fill:#2c57bc;fill-opacity:0.972549;stroke:#000000;stroke-width:0.129646;stroke-dasharray:none;stroke-opacity:1"
       d="m 6.5099116,9.2324477 0.00827,0.578776 0.1405599,0.6614583 0.2480469,0.975651 h 0.5457031 l 0.1570964,-0.30179 0.1322913,-0.467156 0.09095,-0.620117 -0.471289,-0.8268223"
       id="path15"
       sodipodi:nodetypes="ccccccccc" /><path
       style="fill:#d19d75;fill-opacity:0.972549;stroke:#000000;stroke-width:0.129646;stroke-dasharray:none;stroke-opacity:1"
       d="m 6.9067865,11.41526 -0.00827,0.297656 0.2645834,0.09922 0.2108398,-0.04961 0.078548,-0.173633 c 0.00977,-0.08393 -0.012696,-0.187706 0.033077,-0.186034"
       id="path16"
       sodipodi:nodetypes="cccccc" /><path
       style="fill:#8a8a8a;fill-opacity:1;stroke:#000000;stroke-width:0.101454;stroke-dasharray:none;stroke-opacity:1"
       d="m 6.8918118,11.592664 -0.097066,0.539866 0.02208,0.341353 0.25019,0.307218 0.235474,0.0056 0.183963,-0.233248 0.103019,-0.250324 -0.07358,-0.438069 -0.053411,-0.282337"
       id="path17"
       sodipodi:nodetypes="ccccccccc" /><path
       style="fill:#2c57bc;fill-opacity:0.972549;stroke:#000000;stroke-width:0.129646;stroke-dasharray:none;stroke-opacity:1"
       d="m 9.1267956,25.746779 0.00827,0.578776 0.1405603,0.661459 0.248047,0.975651 h 0.5457031 l 0.157096,-0.30179 0.132291,-0.467156 0.09095,-0.620117 -0.4712891,-0.826823"
       id="path15-6"
       sodipodi:nodetypes="ccccccccc" /><path
       style="fill:#d19d75;fill-opacity:0.972549;stroke:#000000;stroke-width:0.129646;stroke-dasharray:none;stroke-opacity:1"
       d="m 9.5236709,27.929592 -0.0083,0.297656 0.264583,0.09922 0.21084,-0.04961 0.07855,-0.173633 c 0.0098,-0.08393 -0.0127,-0.187706 0.03308,-0.186034"
       id="path16-1"
       sodipodi:nodetypes="cccccc" /><path
       style="fill:#8a8a8a;fill-opacity:1;stroke:#000000;stroke-width:0.101454;stroke-dasharray:none;stroke-opacity:1"
       d="m 9.5086959,28.106996 -0.09707,0.539866 0.02208,0.341353 0.25019,0.307218 0.235474,0.0056 0.1839631,-0.233248 0.103019,-0.250324 -0.07358,-0.438069 -0.05341,-0.282337"
       id="path17-8"
       sodipodi:nodetypes="ccccccccc" /><path
       style="fill:#2c57bc;fill-opacity:0.972549;stroke:#000000;stroke-width:0.0897167;stroke-dasharray:none;stroke-opacity:1"
       d="m 23.578112,8.8704582 0.0063,0.3620241 0.107616,0.4137414 0.189907,0.6102713 h 0.417808 l 0.120275,-0.18877 0.101287,-0.2922067 0.06962,-0.3878824 -0.360824,-0.5171777"
       id="path15-6-5"
       sodipodi:nodetypes="ccccccccc" /><path
       style="fill:#d19d75;fill-opacity:0.972549;stroke:#000000;stroke-width:0.0897167;stroke-dasharray:none;stroke-opacity:1"
       d="m 23.881961,10.235807 -0.0063,0.186184 0.202567,0.06207 0.161421,-0.03103 0.06015,-0.10861 c 0.0075,-0.0525 -0.0097,-0.11741 0.02532,-0.116365"
       id="path16-1-9"
       sodipodi:nodetypes="cccccc" /><path
       style="fill:#8a8a8a;fill-opacity:1;stroke:#000000;stroke-width:0.0702078;stroke-dasharray:none;stroke-opacity:1"
       d="m 23.870494,10.346772 -0.0743,0.337687 0.0169,0.213515 0.191548,0.192164 0.180279,0.0036 0.140844,-0.145895 0.07888,-0.156577 -0.05634,-0.274012 -0.04089,-0.176602"
       id="path17-8-8"
       sodipodi:nodetypes="ccccccccc" /><path
       style="fill:none;fill-opacity:1;stroke:#000000;stroke-width:0.129646;stroke-dasharray:none;stroke-opacity:1"
       d="m 43.358593,63.218879 0.711068,0.06615 0.562239,-0.08268 0.760677,-1.008724 0.181901,-0.529167 0.01654,-0.380338 -0.01654,-0.396875 -0.214974,-0.330735 -0.314192,-0.413412 -0.314193,-0.264583 -0.463021,-0.198438 -0.413411,-0.03307 -0.479558,0.06614 -0.479557,0.181901 -0.446484,0.56224 -0.248047,0.545703 -0.03307,0.578776 0.165365,0.380339 z"
       id="path18" /><path
       style="fill:none;fill-opacity:1;stroke:#000000;stroke-width:0.129646;stroke-dasharray:none;stroke-opacity:1"
       d="m 45.47526,62.0944 0.479557,0.09922 0.264583,0.33073 0.03307,0.529166 -1.107942,1.570963 0.595312,0.446485 0.413411,-0.396875 0.363803,-0.446485 0.479557,-0.496093 0.28112,-0.413412 0.363802,-0.611848 0.09922,-0.413412 0.04961,-0.51263 c 0,0 0.03307,-0.661458 0.01654,-0.727604 -0.01654,-0.06615 -0.01654,-0.496094 -0.01654,-0.496094 l -0.248046,-0.429948 -0.545703,-0.297656 -0.892969,-0.28112 -1.240234,-0.132292 -1.620573,-0.01654 -0.992188,0.06614 -0.677994,0.115756 -0.694532,0.198437 -0.429948,0.248047 -0.297656,0.314193 -0.04961,0.628385 c 0,0 0.04961,0.231511 0.08268,0.330729 0.03307,0.09922 0.297656,0.396875 0.297656,0.396875 l 0.578776,0.314193 0.859896,0.148828 0.429948,-0.04961"
       id="path19" /><path
       style="fill:none;fill-opacity:1;stroke:#000000;stroke-width:0.129646;stroke-dasharray:none;stroke-opacity:1"
       d="m 45.607551,65.104036 0.03307,0.545703 -0.380338,0.496094 -0.479558,0.23151 -0.04961,-0.28112 0.264583,-0.198437 0.01654,-0.727605 -0.380339,-0.04961 0.496094,-0.496094"
       id="path20" /><path
       style="fill:none;fill-opacity:1;stroke:#000000;stroke-width:0.129646;stroke-dasharray:none;stroke-opacity:1"
       d="m 44.598827,65.186718 -0.562239,-0.01654 v 1.769401 l 0.926041,0.01654 v -0.578776"
       id="path21" /><path
       style="fill:none;fill-opacity:1;stroke:#000000;stroke-width:0.129646;stroke-dasharray:none;stroke-opacity:1"
       d="m 8.5949808,60.184669 0.529166,-0.08268 0.611849,-0.330729 0.08268,-0.314193 0.2811192,0.03307 0.03307,0.363802 0.198438,0.132292 0.314193,-0.214974 0.132291,-0.56224 0.04961,-0.892968 -0.578776,-0.909506 -1.6867192,-0.115755 -0.711068,0.529167 -0.06615,0.595312 0.03307,0.975651 z"
       id="path22" /><path
       style="fill:none;fill-opacity:1;stroke:#000000;stroke-width:0.129646;stroke-dasharray:none;stroke-opacity:1"
       d="m 10.298236,60.101987 -0.6779952,0.463021 -0.760677,-0.03307 -0.297656,-0.248047"
       id="path23" /><path
       style="fill:none;fill-opacity:1;stroke:#000000;stroke-width:0.129646;stroke-dasharray:none;stroke-opacity:1"
       d="m 10.496673,57.571909 0.777214,0.132292 1.256771,0.79375 0.496093,2.348177 -0.132291,1.653645 -0.264584,0.926042 -0.496093,-0.248047 -0.396875,-3.026172 -1.620573,0.132292"
       id="path24" /><path
       style="fill:none;fill-opacity:1;stroke:#000000;stroke-width:0.129646;stroke-dasharray:none;stroke-opacity:1"
       d="m 8.5122978,60.449253 -1.81901,0.06614 0.09922,1.620573 -0.264584,-0.06614 -0.330729,0.148828 -0.79375,-0.975651 0.01654,-1.256771 0.347265,-1.157552 0.595313,-0.628386 1.736328,-0.727604 0.181901,-0.06615"
       id="path25" /><path
       style="fill:none;fill-opacity:1;stroke:#000000;stroke-width:0.129646;stroke-dasharray:none;stroke-opacity:1"
       d="m 6.2137308,62.301336 0.198437,0.297656 0.463021,0.314193 -0.03307,-0.711068"
       id="path26" /><path
       style="fill:none;fill-opacity:1;stroke:#000000;stroke-width:0.129646;stroke-dasharray:none;stroke-opacity:1"
       d="m 12.514121,63.458888 -0.08268,0.463021 -0.214974,0.132291 -0.132292,-0.926041"
       id="path27" /><path
       style="fill:none;fill-opacity:1;stroke:#000000;stroke-width:0.129646;stroke-dasharray:none;stroke-opacity:1"
       d="m 6.8751888,62.946258 0.264583,2.414323 5.1097662,-0.463021 -0.08268,-0.859896"
       id="path28" /><path
       style="fill:none;fill-opacity:1;stroke:#000000;stroke-width:0.129646;stroke-dasharray:none;stroke-opacity:1"
       d="m 8.4130798,60.465789 0.314192,-0.01654"
       id="path29" /><path
       style="fill:none;fill-opacity:1;stroke:#000000;stroke-width:0.129646;stroke-dasharray:none;stroke-opacity:1"
       d="m 23.961328,62.243229 0.84336,0.06615 0.248046,0.23151 0.529167,0.09922 0.363802,-0.06615 0.446485,-0.463021 0.181901,-0.28112 0.23151,-0.926041 -0.132292,-0.84336 -0.661458,-0.611849 -0.181901,-0.03307 0.03307,-0.46302 -0.529167,-0.28112 -0.446484,-0.08268 -0.413412,0.264584 0.08268,0.529166 -0.51263,0.33073 -0.28112,0.496093 c 0,0 -0.181901,0.479558 -0.181901,0.545703 0,0.06615 0,0.363803 0,0.446485 0,0.08268 0.23151,0.727604 0.23151,0.727604 z"
       id="path30" /><path
       style="fill:none;fill-opacity:1;stroke:#000000;stroke-width:0.129646;stroke-dasharray:none;stroke-opacity:1"
       d="m 26.144141,59.48164 0.595312,-0.03307 0.56224,0.06615 c 0,0 0.446484,0.04961 0.529166,0.09922 0.08268,0.04961 0.512631,0.314193 0.512631,0.314193 l 0.330729,0.413411 0.115755,0.892969 -0.214974,0.926041 -0.28112,1.041797 -0.545703,0.628386 -1.223698,0.777213 -0.23151,0.165365 -0.413412,-0.363802 1.207162,-1.455209 0.148828,-0.959114 h -0.711068"
       id="path31" /><path
       style="fill:none;fill-opacity:1;stroke:#000000;stroke-width:0.129646;stroke-dasharray:none;stroke-opacity:1"
       d="m 23.86211,62.077864 -0.446485,-0.03307 -0.644922,-0.677995 -0.429948,-0.214974 -0.529166,-0.115755 -0.264584,-0.28112 0.01654,-0.51263 0.628385,-0.496093 1.041797,-0.363803 1.240234,-0.03307"
       id="path32" /><path
       style="fill:none;fill-opacity:1;stroke:#000000;stroke-width:0.129646;stroke-dasharray:none;stroke-opacity:1"
       d="m 26.326042,64.855989 v 0.446484 l -0.396875,0.578777 -0.446485,0.181901 -0.04961,-0.248047 0.330729,-0.132292 -0.03307,-0.909505 h -0.314192 l 0.413411,-0.347266"
       id="path33" /><path
       style="fill:none;fill-opacity:1;stroke:#000000;stroke-width:0.129646;stroke-dasharray:none;stroke-opacity:1"
       d="m 25.747266,66.063151 0.01654,0.595312 -1.008724,-0.03307 0.03307,-1.86862 0.578776,-0.01654"
       id="path34" /><rect
       style="fill:#00ffff;fill-opacity:0.913725;stroke:#000000;stroke-width:0.156104;stroke-dasharray:none;stroke-opacity:1"
       id="rect47"
       width="6.6884193"
       height="2.8063304"
       x="38.809982"
       y="6.6147928"
       rx="1.9176589"
       ry="1.4031652" /><path
       style="fill:#561b07;fill-opacity:1;stroke:#000000;stroke-width:0.129646;stroke-dasharray:none;stroke-opacity:1"
       d="m 41.834053,10.09913 0.289388,0.107487 0.264584,-0.01654 0.330729,-0.03307 0.198437,-0.1570963 0.165365,-0.14056 0.132292,-0.181901 0.157096,-0.3141921 0.157096,-0.256316 0.08268,-0.206705 0.124024,-0.372071 -0.01654,-0.181901 -0.03307,-0.248046 -0.06615,-0.248047 -0.06615,-0.231511 -0.132292,-0.28112 -0.226681,-0.348573 -0.198782,-0.11693 -0.268939,-0.105238 -0.30402,-0.081851 -0.187088,-0.011692 H 42.03725 41.838468 l -0.514494,0.187089 -0.163702,0.140316 -0.163703,0.245554 -0.140316,0.245554 -0.140317,0.315712 c 0,0 -0.08185,0.26894 -0.08185,0.315712 0,0.04677 -0.02339,0.327406 -0.02339,0.327406 0,0 0.09354,0.327405 0.128624,0.38587 0.03508,0.05846 0.26894,0.432642 0.26894,0.432642 l 0.26894,0.3741781 z"
       id="path48" /><path
       style="fill:#00ffff;fill-opacity:1;stroke:#000000;stroke-width:0.129646;stroke-dasharray:none;stroke-opacity:1"
       d="m 39.659227,6.8929246 c -0.269466,-0.172482 -1.272418,0.219221 -1.648719,0.818514 0.009,0.999841 0.39676,0.785534 1.145919,1.391472 l 0.760048,0.105237"
       id="path50"
       sodipodi:nodetypes="cccc" /><path
       style="fill:#cc9972;fill-opacity:1;stroke:#000000;stroke-width:0.129646;stroke-dasharray:none;stroke-opacity:1"
       d="m 46.228065,8.2545946 0.246533,-0.282084 -0.04174,-0.247565 -0.192977,-0.161868 -0.248044,-0.06919"
       id="path53"
       sodipodi:nodetypes="ccccc" /><path
       style="fill:#00ffff;fill-opacity:1;stroke:#000000;stroke-width:0.129646;stroke-dasharray:none;stroke-opacity:1"
       d="m 44.605173,6.9630826 c 0.269466,-0.172482 1.272418,0.219221 1.648719,0.818514 -0.009,0.999841 -0.39676,0.785534 -1.145919,1.391472 l -0.760048,0.105237"
       id="path54"
       sodipodi:nodetypes="cccc" /><path
       style="fill:#d19d75;fill-opacity:0.972549;stroke:#000000;stroke-width:0.129646;stroke-dasharray:none;stroke-opacity:1"
       d="m 5.4852097,27.542021 c 0.05846,0.09354 0.08185,0.385954 0.140316,0.309866 l 0.116929,0.204628 0.11693,0.233861 -0.02339,0.315712 -0.245554,0.09354 -0.350792,-0.0117 -0.198781,-0.245554 -0.163703,-0.245554 0.03508,-0.42095 0.03508,-0.210475"
       id="path112-1"
       sodipodi:nodetypes="ccccccccccc" /><rect
       style="fill:#00ffff;fill-opacity:0.913725;stroke:#000000;stroke-width:0.156104;stroke-dasharray:none;stroke-opacity:1"
       id="rect112-2"
       width="6.6884193"
       height="2.8063304"
       x="-11.80666"
       y="23.591413"
       rx="1.9176589"
       ry="1.4031652"
       transform="scale(-1,1)" /><path
       style="fill:#561b07;fill-opacity:1;stroke:#000000;stroke-width:0.129646;stroke-dasharray:none;stroke-opacity:1"
       d="m 9.1463917,27.059214 c -0.21773,0.04134 0.285103,-0.02186 -0.504362,0.09095 l -0.413412,0.01653 -0.330729,-0.03307 -0.198437,-0.157093 -0.165365,-0.14056 -0.132292,-0.181901 -0.157096,-0.314192 -0.157096,-0.256316 -0.08268,-0.206705 -0.124024,-0.372071 0.01654,-0.181901 0.03307,-0.248046 0.06615,-0.248047 0.06615,-0.231511 0.132292,-0.28112 0.226681,-0.348573 0.198782,-0.11693 0.26894,-0.105238 0.304019,-0.08185 0.187088,-0.01169 h 0.198782 0.198782 l 0.514494,0.187089 0.163702,0.140316 0.163703,0.245554 0.140316,0.245554 0.140317,0.315712 c 0,0 0.08185,0.26894 0.08185,0.315712 0,0.04677 0.02339,0.327406 0.02339,0.327406 0,0 -0.09354,0.327405 -0.1286261,0.38587 -0.03508,0.05846 -0.09531,0.325155 -0.09531,0.325155 l -0.202794,0.465129 z"
       id="path113-5"
       sodipodi:nodetypes="ccccccccccccccccccccccccccccscsccc" /><path
       style="fill:#00ffff;fill-opacity:1;stroke:#000000;stroke-width:0.156104;stroke-dasharray:none;stroke-opacity:1"
       d="m 6.0204547,26.115645 c -0.179249,0.523333 -0.30063,0.634248 -0.387032,1.052733 -0.125245,0.606617 0.166738,0.702359 -0.46596,0.892664 -0.52458,0.157784 -0.701574,-1.447215 -0.64854,-1.64514 0.362775,-1.353896 0.648545,-2.483004 1.394468,-2.578937"
       id="path114-0"
       sodipodi:nodetypes="csssc" /><path
       style="fill:#00ffff;fill-opacity:1;stroke:#000000;stroke-width:0.129646;stroke-dasharray:none;stroke-opacity:1"
       d="m 10.922337,23.939704 0.467722,-0.561267 0.140316,-0.09354 0.713276,-0.04677 0.05137,0.402407 -0.123193,1.193278 -0.161697,0.471146 -0.549917,0.774579 -0.748355,0.169548"
       id="path115-9"
       sodipodi:nodetypes="ccccccccc" /><path
       style="fill:#cc9972;fill-opacity:1;stroke:#000000;stroke-width:0.129646;stroke-dasharray:none;stroke-opacity:1"
       d="m 12.284397,23.377119 -0.14056,-0.347265 -0.239779,-0.07441 -0.23151,0.09922 -0.220405,0.272022"
       id="path116-4"
       sodipodi:nodetypes="ccccc" /><path
       style="fill:#d19d75;fill-opacity:0.972549;stroke:#000000;stroke-width:0.129646;stroke-dasharray:none;stroke-opacity:1"
       d="m 11.339906,10.641761 c -0.05846,0.09354 -0.08185,0.385954 -0.140316,0.309866 l -0.116929,0.204628 -0.11693,0.233861 0.02339,0.315712 0.245554,0.09354 0.350792,-0.0117 0.198781,-0.245554 0.163703,-0.245554 -0.03508,-0.42095 -0.03508,-0.210475"
       id="path1"
       sodipodi:nodetypes="ccccccccccc" /><rect
       style="fill:#00ffff;fill-opacity:0.913725;stroke:#000000;stroke-width:0.156104;stroke-dasharray:none;stroke-opacity:1"
       id="rect1"
       width="6.6884193"
       height="2.8063304"
       x="5.0184555"
       y="6.6911535"
       rx="1.9176589"
       ry="1.4031652" /><path
       style="fill:#561b07;fill-opacity:1;stroke:#000000;stroke-width:0.129646;stroke-dasharray:none;stroke-opacity:1"
       d="m 7.6787239,10.158954 c 0.21773,0.04134 -0.285103,-0.02186 0.504362,0.09095 l 0.413412,0.01653 0.330729,-0.03307 0.198437,-0.157093 0.165365,-0.1405597 0.132292,-0.181901 0.157096,-0.314192 0.157096,-0.256316 0.08268,-0.206705 0.124024,-0.372071 -0.01654,-0.181901 -0.03307,-0.248046 -0.06615,-0.248047 -0.06615,-0.231511 -0.132292,-0.28112 -0.226681,-0.348573 -0.198782,-0.11693 -0.26894,-0.105238 -0.304019,-0.08185 -0.187088,-0.01169 h -0.198782 -0.198782 l -0.514494,0.187089 -0.163702,0.140316 -0.163703,0.245554 -0.140316,0.245554 -0.140317,0.315712 c 0,0 -0.08185,0.26894 -0.08185,0.315712 0,0.04677 -0.02339,0.327406 -0.02339,0.327406 0,0 0.09354,0.327405 0.128626,0.38587 0.03508,0.05846 0.09531,0.325155 0.09531,0.325155 l 0.2027941,0.465129 z"
       id="path2"
       sodipodi:nodetypes="ccccccccccccccccccccccccccccscsccc" /><path
       style="fill:#00ffff;fill-opacity:1;stroke:#000000;stroke-width:0.156104;stroke-dasharray:none;stroke-opacity:1"
       d="m 10.804661,9.2153853 c 0.179249,0.523333 0.30063,0.634248 0.387032,1.0527327 0.125245,0.606617 -0.166738,0.702359 0.46596,0.892664 0.52458,0.157784 0.701574,-1.4472147 0.64854,-1.6451397 -0.362775,-1.353896 -0.648545,-2.483004 -1.394468,-2.578937"
       id="path3"
       sodipodi:nodetypes="csssc" /><path
       style="fill:#00ffff;fill-opacity:1;stroke:#000000;stroke-width:0.129646;stroke-dasharray:none;stroke-opacity:1"
       d="m 5.9027789,7.0394443 -0.467722,-0.561267 -0.140316,-0.09354 -0.713276,-0.04677 -0.05137,0.402407 0.123193,1.193278 0.161697,0.471146 0.549917,0.774579 0.748355,0.169548"
       id="path4"
       sodipodi:nodetypes="ccccccccc" /><path
       style="fill:#cc9972;fill-opacity:1;stroke:#000000;stroke-width:0.129646;stroke-dasharray:none;stroke-opacity:1"
       d="m 4.5407189,6.4768593 0.14056,-0.347265 0.239779,-0.07441 0.23151,0.09922 0.220405,0.272022"
       id="path5"
       sodipodi:nodetypes="ccccc" /><path
       style="fill:#d19d75;fill-opacity:0.972549;stroke:#000000;stroke-width:0.129646;stroke-dasharray:none;stroke-opacity:1"
       d="m 28.599955,9.0696223 c -0.05846,0.09354 -0.08185,0.3859535 -0.140316,0.3098655 l -0.116929,0.204628 -0.11693,0.233861 0.02339,0.3157122 0.245554,0.09354 0.350792,-0.0117 L 29.044297,9.9699746 29.208,9.7244208 29.17292,9.3034708 29.13784,9.0929963"
       id="path6"
       sodipodi:nodetypes="ccccccccccc" /><path
       style="fill:#2d58bc;fill-opacity:0.972549;stroke:#000000;stroke-width:0.104235;stroke-dasharray:none;stroke-opacity:1"
       d="m 27.391318,7.3617735 -0.159622,-0.7176013 -0.04434,-0.5980008 -0.230565,-0.0897 -0.133018,-0.0897 -0.239432,0.1295668 -0.106414,0.538201 -0.150754,0.7375343"
       id="path11-3" /><path
       style="fill:#d19d75;fill-opacity:0.972549;stroke:#000000;stroke-width:0.128479;stroke-dasharray:none;stroke-opacity:1"
       d="m 27.191607,6.095027 -0.0424,-0.1527574 -0.160494,-0.1161084 -0.378409,0.00464 -0.01855,0.090092 0.0044,0.1346022"
       id="path12-6"
       sodipodi:nodetypes="cccccc" /><rect
       style="fill:#00ffff;fill-opacity:0.913725;stroke:#000000;stroke-width:0.156104;stroke-dasharray:none;stroke-opacity:1"
       id="rect6"
       width="6.6884193"
       height="2.8063304"
       x="22.08408"
       y="6.6911535"
       rx="1.9176589"
       ry="1.4031652" /><path
       style="fill:#8a8a8a;fill-opacity:1;stroke:#000000;stroke-width:0.120387;stroke-dasharray:none;stroke-opacity:1"
       d="m 27.139828,5.8550389 c -0.05383,-0.1221028 0.07896,0.3009738 -0.141687,-0.3440101 l -0.165744,-0.1386081 -0.131961,0.021056 -0.112536,0.09202 -5.15e-4,0.3523536"
       id="path13-1"
       sodipodi:nodetypes="cccccc" /><path
       style="fill:#561b07;fill-opacity:1;stroke:#000000;stroke-width:0.129646;stroke-dasharray:none;stroke-opacity:1"
       d="m 24.767734,10.06541 c 0.21773,0.04134 -0.285103,-0.02186 0.504362,0.09095 l 0.413412,0.01653 0.330729,-0.03307 0.198437,-0.1570933 0.165365,-0.1405597 0.132292,-0.181901 0.157096,-0.314192 0.157096,-0.256316 0.08268,-0.206705 0.124024,-0.372071 -0.01654,-0.181901 -0.03307,-0.248046 -0.06615,-0.248047 -0.06615,-0.231511 -0.132292,-0.28112 -0.226681,-0.348573 -0.198782,-0.11693 -0.26894,-0.105238 -0.304019,-0.08185 -0.187088,-0.01169 h -0.198782 -0.198782 l -0.514494,0.187089 -0.163702,0.140316 -0.163703,0.245554 -0.140316,0.245554 -0.140317,0.315712 c 0,0 -0.08185,0.26894 -0.08185,0.315712 0,0.04677 -0.02339,0.327406 -0.02339,0.327406 0,0 0.09354,0.327405 0.128626,0.38587 0.03508,0.05846 0.09531,0.325155 0.09531,0.325155 l 0.202794,0.465129 z"
       id="path7"
       sodipodi:nodetypes="ccccccccccccccccccccccccccccscsccc" /><path
       style="fill:#00ffff;fill-opacity:1;stroke:#000000;stroke-width:0.156104;stroke-dasharray:none;stroke-opacity:1"
       d="m 27.957983,9.1773829 c 0.105097,0.1479998 0.191568,0.1692126 0.263136,0.2662142 0.158642,0.2150204 0.212953,0.5200489 0.404885,0.5102523 0.234296,-0.011959 0.204752,0.03197 0.321085,-0.098096 0.168641,-0.1885486 0.302683,-0.4421846 0.306226,-0.6018358 0.0023,-0.1024862 -0.01246,-0.2661483 -0.0524,-0.4062092 C 29.146241,8.6559518 29.144681,8.4659902 29.063759,8.3448233 28.930255,8.1449235 28.844171,7.8139776 28.657037,7.5648648 28.45861,7.3007189 28.331018,7.2035749 27.977353,6.9367053"
       id="path35"
       sodipodi:nodetypes="csssssssc" /><path
       style="fill:#cc9972;fill-opacity:1;stroke:#000000;stroke-width:0.129646;stroke-dasharray:none;stroke-opacity:1"
       d="m 22.038407,6.6490022 0.103353,-0.2645827 0.239779,-0.07441 0.23151,0.09922 0.141857,0.2472173"
       id="path37"
       sodipodi:nodetypes="ccccc" /><path
       style="fill:#00ffff;fill-opacity:1;stroke:#000000;stroke-width:0.129646;stroke-dasharray:none;stroke-opacity:1"
       d="m 22.980805,7.0063714 c -0.13796,-0.1602176 -0.153634,-0.2829526 -0.202139,-0.370266 -0.03415,-0.061463 -0.08013,-0.121596 -0.215734,-0.094372 l -0.518971,0.073118 -0.142316,0.2701154 -0.0658,1.036891 0.04477,0.482839 0.549917,0.774579 0.748355,0.169548"
       id="path36"
       sodipodi:nodetypes="csccccccc" /><path
       style="fill:#2c57bc;fill-opacity:0.972549;stroke:#000000;stroke-width:0.0897167;stroke-dasharray:none;stroke-opacity:1"
       d="m 61.285279,8.8534651 -0.0063,0.3620241 -0.107616,0.4137414 -0.189907,0.6102714 H 60.563648 L 60.443373,10.050732 60.342086,9.7585252 60.272466,9.3706428 60.63329,8.8534651"
       id="path15-6-5-9"
       sodipodi:nodetypes="ccccccccc" /><path
       style="fill:#d19d75;fill-opacity:0.972549;stroke:#000000;stroke-width:0.0897167;stroke-dasharray:none;stroke-opacity:1"
       d="m 60.98143,10.218814 0.0063,0.186184 -0.202567,0.06207 -0.161421,-0.03103 -0.06015,-0.10861 c -0.0075,-0.0525 0.0097,-0.11741 -0.02532,-0.116365"
       id="path16-1-9-7"
       sodipodi:nodetypes="cccccc" /><path
       style="fill:#8a8a8a;fill-opacity:1;stroke:#000000;stroke-width:0.0702078;stroke-dasharray:none;stroke-opacity:1"
       d="m 60.992897,10.329779 0.0743,0.337687 -0.0169,0.213515 -0.191548,0.192164 -0.180279,0.0036 -0.140844,-0.145895 -0.07888,-0.156577 0.05634,-0.274012 0.04089,-0.176602"
       id="path17-8-8-3"
       sodipodi:nodetypes="ccccccccc" /><path
       style="fill:#d19d75;fill-opacity:0.972549;stroke:#000000;stroke-width:0.129646;stroke-dasharray:none;stroke-opacity:1"
       d="m 56.263436,9.0526292 c 0.05846,0.09354 0.08185,0.3859535 0.140316,0.3098655 l 0.116929,0.204628 0.11693,0.233861 -0.02339,0.3157123 -0.245554,0.09354 -0.350792,-0.0117 -0.198781,-0.2455545 -0.163703,-0.2455538 0.03508,-0.42095 0.03508,-0.2104745"
       id="path6-7"
       sodipodi:nodetypes="ccccccccccc" /><path
       style="fill:#2d58bc;fill-opacity:0.972549;stroke:#000000;stroke-width:0.104235;stroke-dasharray:none;stroke-opacity:1"
       d="m 57.472073,7.3447804 0.159622,-0.7176013 0.04434,-0.5980008 0.230565,-0.0897 0.133018,-0.0897 0.239432,0.1295668 0.106414,0.538201 0.150754,0.7375343"
       id="path11-3-2" /><path
       style="fill:#d19d75;fill-opacity:0.972549;stroke:#000000;stroke-width:0.128479;stroke-dasharray:none;stroke-opacity:1"
       d="m 57.671784,6.0780339 0.0424,-0.1527574 0.160494,-0.1161084 0.378409,0.00464 0.01855,0.090092 -0.0044,0.1346022"
       id="path12-6-6"
       sodipodi:nodetypes="cccccc" /><rect
       style="fill:#00ffff;fill-opacity:0.913725;stroke:#000000;stroke-width:0.156104;stroke-dasharray:none;stroke-opacity:1"
       id="rect6-0"
       width="6.6884193"
       height="2.8063304"
       x="-62.779312"
       y="6.6741605"
       rx="1.9176589"
       ry="1.4031652"
       transform="scale(-1,1)" /><path
       style="fill:#8a8a8a;fill-opacity:1;stroke:#000000;stroke-width:0.120387;stroke-dasharray:none;stroke-opacity:1"
       d="m 57.723563,5.8380458 c 0.05383,-0.1221028 -0.07896,0.3009738 0.141687,-0.3440101 l 0.165744,-0.1386081 0.131961,0.021056 0.112536,0.09202 5.15e-4,0.3523536"
       id="path13-1-1"
       sodipodi:nodetypes="cccccc" /><path
       style="fill:#561b07;fill-opacity:1;stroke:#000000;stroke-width:0.129646;stroke-dasharray:none;stroke-opacity:1"
       d="m 60.095657,10.048417 c -0.21773,0.04134 0.285103,-0.02186 -0.504362,0.09095 l -0.413412,0.01653 -0.330729,-0.03307 -0.198437,-0.1570934 -0.165365,-0.1405597 -0.132292,-0.181901 -0.157096,-0.314192 -0.157096,-0.256316 -0.08268,-0.206705 -0.124024,-0.372071 0.01654,-0.181901 0.03307,-0.248046 0.06615,-0.248047 0.06615,-0.231511 0.132292,-0.28112 0.226681,-0.348573 0.198782,-0.11693 0.26894,-0.105238 0.304019,-0.08185 0.187088,-0.01169 h 0.198782 0.198782 l 0.514494,0.187089 0.163702,0.140316 0.163703,0.245554 0.140316,0.245554 0.140317,0.315712 c 0,0 0.08185,0.26894 0.08185,0.315712 0,0.04677 0.02339,0.327406 0.02339,0.327406 0,0 -0.09354,0.327405 -0.128626,0.38587 -0.03508,0.05846 -0.09531,0.325155 -0.09531,0.325155 l -0.202794,0.465129 z"
       id="path7-6"
       sodipodi:nodetypes="ccccccccccccccccccccccccccccscsccc" /><path
       style="fill:#00ffff;fill-opacity:1;stroke:#000000;stroke-width:0.156104;stroke-dasharray:none;stroke-opacity:1"
       d="M 56.905408,9.1603898 C 56.800311,9.3083896 56.71384,9.3296024 56.642272,9.426604 56.48363,9.6416244 56.429319,9.9466529 56.237387,9.9368563 56.003091,9.9248973 56.032635,9.9688263 55.916302,9.8387603 55.747661,9.6502117 55.613619,9.3965757 55.610076,9.2369245 c -0.0023,-0.1024862 0.01246,-0.2661483 0.0524,-0.4062092 0.05467,-0.1917566 0.05623,-0.3817182 0.137156,-0.5028851 0.133504,-0.1998998 0.219588,-0.5308457 0.406722,-0.7799585 0.198427,-0.2641459 0.326019,-0.3612899 0.679684,-0.6281595"
       id="path35-5"
       sodipodi:nodetypes="csssssssc" /><path
       style="fill:#cc9972;fill-opacity:1;stroke:#000000;stroke-width:0.129646;stroke-dasharray:none;stroke-opacity:1"
       d="m 62.824984,6.6320091 -0.103353,-0.2645827 -0.239779,-0.07441 -0.23151,0.09922 -0.141857,0.2472173"
       id="path37-7"
       sodipodi:nodetypes="ccccc" /><path
       style="fill:#00ffff;fill-opacity:1;stroke:#000000;stroke-width:0.129646;stroke-dasharray:none;stroke-opacity:1"
       d="m 61.882586,6.9893783 c 0.13796,-0.1602176 0.153634,-0.2829526 0.202139,-0.370266 0.03415,-0.061463 0.08013,-0.121596 0.215734,-0.094372 l 0.518971,0.073118 0.142316,0.2701154 0.0658,1.036891 -0.04477,0.482839 -0.549917,0.774579 -0.748355,0.169548"
       id="path36-5"
       sodipodi:nodetypes="csccccccc" /></g></svg>
